Coordinates
version=1
nRows=30
nColumns=38
inDegrees=no

Units are S.I. units (second, meters, Newtons, ...)
If the header above contains a line with 'inDegrees', this indicates whether rotational values are in degrees (yes) or radians (no).

endheader
time	pelvis_tilt	pelvis_list	pelvis_rotation	pelvis_tx	pelvis_ty	pelvis_tz	hip_flexion_r	hip_adduction_r	hip_rotation_r	knee_angle_r	ankle_angle_r	subtalar_angle_r	mtp_angle_r	hip_flexion_l	hip_adduction_l	hip_rotation_l	knee_angle_l	ankle_angle_l	subtalar_angle_l	mtp_angle_l	lumbar_extension	lumbar_bending	lumbar_rotation	arm_flex_r	arm_add_r	arm_rot_r	elbow_flex_r	pro_sup_r	wrist_flex_r	wrist_dev_r	arm_flex_l	arm_add_l	arm_rot_l	elbow_flex_l	pro_sup_l	wrist_flex_l	wrist_dev_l
1.56	0.61879	1.41815	1.13211	0.783813	1.64122	1.0323	0.41274	0.0168656	-0.208004	0	-0.235007	0	0	-0.0584215	-0.0999082	-0.216647	0.247072	-0.0226979	0	0	-0.0548632	0.0575223	-0.119139	-0.0743303	-0.247898	0.574066	0.286931	1.22238	0	0	-0.238915	-0.0972445	-0.565955	0.511236	1.02116	0	0
1.57	0.602665	1.41763	1.15134	0.78362	1.65319	1.03014	0.417042	0.0167284	-0.213718	0	-0.232361	0	0	-0.0625335	-0.10126	-0.215355	0.261691	-0.0153275	0	0	-0.0514859	0.0580808	-0.119132	-0.0748467	-0.246412	0.583876	0.277979	1.22134	0	0	-0.235942	-0.0996787	-0.561812	0.510161	1.01381	0	0
1.58	0.597825	1.41848	1.15842	0.78341	1.66541	1.02815	0.419327	0.0176655	-0.214569	0	-0.225283	0	0	-0.069486	-0.103714	-0.21648	0.276908	-0.0104144	0	0	-0.0505647	0.0598742	-0.117416	-0.0764786	-0.246628	0.590036	0.272783	1.21956	0	0	-0.233032	-0.100942	-0.559177	0.510546	1.00888	0	0
1.59	0.596851	1.42051	1.16077	0.783172	1.67786	1.02637	0.420746	0.0183543	-0.210638	0	-0.221229	0	0	-0.0769829	-0.106127	-0.21717	0.293549	-0.00835064	0	0	-0.0509453	0.0618904	-0.114922	-0.07857	-0.247732	0.59223	0.269649	1.21908	0	0	-0.230378	-0.101123	-0.558882	0.511149	1.00663	0	0
1.6	0.600137	1.42313	1.15816	0.782894	1.6905	1.02478	0.42182	0.0192348	-0.202994	0	-0.217848	0	0	-0.0839716	-0.108967	-0.217421	0.313192	-0.00573343	0	0	-0.0519663	0.0645108	-0.111682	-0.0803873	-0.249407	0.593968	0.266557	1.21794	0	0	-0.227913	-0.100535	-0.55878	0.511376	1.00462	0	0
1.61	0.60794	1.42587	1.1499	0.782676	1.7034	1.02338	0.422963	0.0211777	-0.192175	0.00832609	-0.21762	0	0	-0.0906871	-0.112626	-0.217655	0.33543	-0.00180229	0	0	-0.0533585	0.0678116	-0.107048	-0.0821053	-0.251796	0.595839	0.263875	1.21519	0	0	-0.225989	-0.0994581	-0.557857	0.511512	1.00317	0	0
1.62	0.594215	1.42883	1.16477	0.782247	1.71635	1.02235	0.429099	0.0190018	-0.191735	0.0475715	-0.22118	0	0	-0.0861031	-0.11031	-0.206188	0.333195	-0.00560231	0	0	-0.0524208	0.0683944	-0.104092	-0.0833642	-0.253369	0.59836	0.259132	1.20966	0	0	-0.222583	-0.0995125	-0.554748	0.505971	1.00327	0	0
1.63	0.630324	1.42997	1.12718	0.782003	1.73041	1.02073	0.431424	0.0265075	-0.193745	0.0856216	-0.22852	0	0	-0.102166	-0.121869	-0.216101	0.381643	0.0011153	0	0	-0.0510871	0.075729	-0.0999329	-0.0872062	-0.258157	0.601041	0.259299	1.2056	0	0	-0.227776	-0.0965155	-0.553854	0.510769	1.00529	0	0
1.64	0.650732	1.43137	1.10786	0.781635	1.74436	1.01957	0.431635	0.0310572	-0.192515	0.115554	-0.244515	0	0	-0.105652	-0.127915	-0.212374	0.408838	-5.24499e-05	0	0	-0.0487418	0.0807685	-0.099053	-0.0900598	-0.262029	0.602386	0.258823	1.20066	0	0	-0.231107	-0.0946783	-0.553471	0.510669	1.00905	0	0
1.65	0.674957	1.43062	1.08497	0.781354	1.75836	1.01859	0.4312	0.0364414	-0.187776	0.136335	-0.266174	0	0	-0.104952	-0.135351	-0.204775	0.440291	-0.00313758	0	0	-0.0440515	0.0874763	-0.0979412	-0.0932208	-0.266106	0.601838	0.25842	1.19468	0	0	-0.233283	-0.0932058	-0.552966	0.506822	1.01599	0	0
1.66	0.701644	1.42742	1.05945	0.781134	1.77228	1.01785	0.432394	0.0423066	-0.185628	0.155245	-0.287186	0	0	-0.0991674	-0.143991	-0.192654	0.478631	-0.0098465	0	0	-0.0370103	0.0963019	-0.0952237	-0.097156	-0.270805	0.598794	0.258684	1.18643	0	0	-0.233051	-0.0913581	-0.553504	0.498803	1.02599	0	0
1.67	0.736617	1.4232	1.02543	0.780933	1.7861	1.01753	0.434195	0.0492206	-0.191468	0.178137	-0.294662	0	0	-0.0900561	-0.153932	-0.178133	0.523792	-0.022801	0	0	-0.0302338	0.107174	-0.0913617	-0.100782	-0.276021	0.593564	0.259476	1.17844	0	0	-0.231228	-0.0884495	-0.555666	0.489441	1.0347	0	0
1.68	0.775805	1.41844	0.986646	0.780749	1.7998	1.01766	0.435773	0.0568885	-0.200307	0.204747	-0.285812	0	0	-0.0772497	-0.164231	-0.163749	0.5738	-0.038913	0	0	-0.0243858	0.119268	-0.0870493	-0.103647	-0.281768	0.586389	0.261263	1.17027	0	0	-0.229218	-0.0850268	-0.557987	0.480205	1.04337	0	0
1.69	0.809117	1.41256	0.952571	0.780627	1.8132	1.01804	0.438164	0.0652561	-0.202912	0.233469	-0.268492	0	0	-0.0593491	-0.173707	-0.148998	0.628634	-0.0580953	0	0	-0.0185348	0.131383	-0.0823544	-0.105366	-0.288024	0.578373	0.264317	1.16208	0	0	-0.228181	-0.0809993	-0.560905	0.473169	1.05166	0	0
1.7	0.83193	1.40594	0.927614	0.780497	1.82629	1.01844	0.441493	0.0738173	-0.196966	0.262912	-0.249386	0	0	-0.0364944	-0.180981	-0.136043	0.694948	-0.0788421	0	0	-0.0125792	0.142328	-0.0770767	-0.106199	-0.295084	0.570194	0.269589	1.15418	0	0	-0.229233	-0.0760741	-0.565176	0.470928	1.05916	0	0
1.71	0.841569	1.39934	0.915389	0.78052	1.83907	1.01885	0.445536	0.0814727	-0.187379	0.292004	-0.229745	0	0	-0.0111932	-0.187129	-0.11667	0.748327	-0.111819	0	0	-0.00592923	0.150929	-0.0726399	-0.10576	-0.301821	0.562549	0.27566	1.14723	0	0	-0.232081	-0.0713264	-0.570676	0.471978	1.06597	0	0
1.72	0.848126	1.39465	0.906956	0.780451	1.85168	1.01928	0.446744	0.0874301	-0.181388	0.316983	-0.210647	0	0	0.015206	-0.190785	-0.100956	0.810318	-0.140616	0	0	-0.00164949	0.157053	-0.0693224	-0.104307	-0.308743	0.555546	0.28383	1.14202	0	0	-0.236438	-0.0666914	-0.577162	0.477558	1.07229	0	0
1.73	0.855897	1.39047	0.899875	0.780408	1.864	1.01956	0.44528	0.0925384	-0.181421	0.336005	-0.192666	0	0	0.0430164	-0.194241	-0.0818793	0.870955	-0.169433	0	0	0.00104076	0.161527	-0.0688793	-0.101922	-0.315398	0.548661	0.294731	1.13836	0	0	-0.242622	-0.0626465	-0.584507	0.488961	1.07832	0	0
1.74	0.865373	1.38637	0.893682	0.780219	1.87603	1.01973	0.440753	0.0972228	-0.184544	0.347907	-0.176498	0	0	0.0721766	-0.197214	-0.0613107	0.930055	-0.201151	0	0	0.00298908	0.165381	-0.0714317	-0.0987974	-0.32222	0.541499	0.307876	1.13594	0	0	-0.249564	-0.0589407	-0.59212	0.503596	1.08384	0	0
1.75	0.873035	1.38099	0.891965	0.779866	1.88774	1.01977	0.43504	0.101969	-0.188372	0.353853	-0.162345	0	0	0.104602	-0.200129	-0.0371779	0.986603	-0.233151	0	0	0.00620883	0.169445	-0.0767049	-0.0954773	-0.329284	0.533488	0.322827	1.13382	0	0	-0.256189	-0.056037	-0.597901	0.518409	1.09032	0	0
1.76	0.883447	1.37733	0.889571	0.778969	1.89928	1.02003	0.42528	0.105209	-0.19398	0.355198	-0.150856	0	0	0.137132	-0.19894	-0.0223318	1.04648	-0.242833	0	0	0.00801533	0.172944	-0.0834593	-0.0919361	-0.337055	0.524947	0.339058	1.13135	0	0	-0.261593	-0.0540238	-0.599901	0.531636	1.0981	0	0
1.77	0.904118	1.37221	0.877753	0.778594	1.91083	1.02042	0.413393	0.112569	-0.19814	0.351561	-0.140451	0	0	0.167101	-0.205808	0.0049643	1.09266	-0.256916	0	0	0.00978328	0.178478	-0.0909194	-0.0888829	-0.344551	0.514014	0.358041	1.12826	0	0	-0.266988	-0.0535236	-0.600065	0.544869	1.10679	0	0
1.78	0.927339	1.37127	0.863879	0.777802	1.92228	1.0214	0.397046	0.116947	-0.204806	0.34723	-0.131364	0	0	0.193241	-0.207254	0.0209384	1.1382	-0.24612	0	0	0.00801027	0.182237	-0.0970213	-0.0864777	-0.352337	0.499752	0.378393	1.12435	0	0	-0.269296	-0.0531774	-0.599271	0.55517	1.11345	0	0
1.79	0.952288	1.37296	0.847761	0.777109	1.93368	1.02287	0.377936	0.120406	-0.211963	0.342108	-0.123379	0	0	0.21556	-0.206933	0.0324222	1.17705	-0.220621	0	0	0.00409598	0.184601	-0.10063	-0.0856206	-0.359442	0.480168	0.400305	1.12028	0	0	-0.269146	-0.0532903	-0.598076	0.563119	1.11665	0	0
1.8	0.971905	1.37746	0.834906	0.776507	1.9451	1.02477	0.357009	0.121986	-0.217493	0.336288	-0.117311	0	0	0.233986	-0.203221	0.0398011	1.20788	-0.19361	0	0	-0.00107705	0.184288	-0.101198	-0.0852243	-0.365544	0.458215	0.421742	1.11758	0	0	-0.267901	-0.0545963	-0.594415	0.56825	1.1183	0	0
1.81	0.983806	1.3835	0.827675	0.776014	1.9565	1.02687	0.33599	0.1222	-0.220047	0.330112	-0.112719	0	0	0.250241	-0.197027	0.0442923	1.23116	-0.173568	0	0	-0.00624642	0.181613	-0.0999571	-0.0845808	-0.370822	0.436068	0.442521	1.11555	0	0	-0.266923	-0.0565519	-0.589595	0.571897	1.11872	0	0
1.82	0.98833	1.39007	0.825995	0.775699	1.96783	1.02898	0.315957	0.121606	-0.21998	0.323995	-0.109141	0	0	0.266499	-0.189962	0.0451065	1.24924	-0.157456	0	0	-0.0108234	0.17721	-0.0970592	-0.0849345	-0.37565	0.411649	0.465009	1.1147	0	0	-0.266746	-0.0585616	-0.584951	0.575689	1.11754	0	0
1.83	0.984793	1.39733	0.830841	0.775389	1.97909	1.03108	0.29691	0.119562	-0.219963	0.318756	-0.106263	0	0	0.282738	-0.181822	0.0432052	1.26234	-0.145031	0	0	-0.0149044	0.171104	-0.0931013	-0.0857303	-0.380114	0.387009	0.488221	1.11688	0	0	-0.267467	-0.0603141	-0.580734	0.579576	1.1159	0	0
1.84	0.981181	1.40611	0.834732	0.77499	1.99035	1.03335	0.276298	0.116475	-0.220824	0.313113	-0.104063	0	0	0.296235	-0.173112	0.0396753	1.26919	-0.135218	0	0	-0.0203812	0.163913	-0.0884465	-0.0865944	-0.384258	0.36276	0.511875	1.12271	0	0	-0.268644	-0.0618844	-0.576874	0.583094	1.11511	0	0
1.85	0.987684	1.41593	0.828537	0.7746	2.00163	1.0358	0.252449	0.11415	-0.219826	0.305202	-0.102814	0	0	0.306544	-0.165845	0.0353683	1.27031	-0.126194	0	0	-0.0280338	0.156882	-0.0844178	-0.0869247	-0.387938	0.339566	0.53582	1.13198	0	0	-0.270873	-0.0635593	-0.572957	0.587457	1.11598	0	0
